<mxfile host="app.diagrams.net" modified="2022-02-09T03:17:05.371Z" agent="5.0 (Windows NT 10.0; WOW64) AppleWebKit/537.36 (KHTML, like Gecko) Chrome/86.0.4240.198 Safari/537.36" etag="zKUnZ-wa7mVVifhwkrq1" version="15.7.3" type="github">
  <diagram id="0d7cefc2-ccd6-e077-73ed-a8e48b0cddf6" name="Page-1">
    <mxGraphModel dx="1422" dy="762" grid="1" gridSize="10" guides="1" tooltips="1" connect="1" arrows="1" fold="1" page="1" pageScale="1" pageWidth="1169" pageHeight="827" background="none" math="0" shadow="0">
      <root>
        <mxCell id="0" />
        <mxCell id="1" parent="0" />
        <mxCell id="2" value="" style="swimlane;shadow=0;strokeColor=#4277BB;fillColor=#ffffff;fontColor=#4277BB;align=right;startSize=0;collapsible=0;strokeWidth=3;" parent="1" vertex="1">
          <mxGeometry x="178" y="74" width="942" height="606" as="geometry" />
        </mxCell>
        <mxCell id="104" style="rounded=0;elbow=vertical;html=1;labelBackgroundColor=#ffffff;startArrow=none;startFill=0;endArrow=classic;endFill=1;jettySize=auto;orthogonalLoop=1;strokeColor=#4277BB;strokeWidth=2;fontSize=14;fontColor=#4277BB;entryX=0.5;entryY=0;entryDx=0;entryDy=0;entryPerimeter=0;" parent="2" target="CSuMtrH3Dct_yg1dfhXP-106" edge="1">
          <mxGeometry relative="1" as="geometry">
            <mxPoint x="160" y="190" as="targetPoint" />
            <mxPoint x="160" y="146" as="sourcePoint" />
          </mxGeometry>
        </mxCell>
        <mxCell id="CSuMtrH3Dct_yg1dfhXP-108" style="edgeStyle=none;rounded=0;orthogonalLoop=1;jettySize=auto;html=1;startArrow=none;startFill=0;strokeColor=#4277BB;strokeWidth=2;" edge="1" parent="2" source="CSuMtrH3Dct_yg1dfhXP-106">
          <mxGeometry relative="1" as="geometry">
            <mxPoint x="315" y="298.5" as="targetPoint" />
          </mxGeometry>
        </mxCell>
        <mxCell id="CSuMtrH3Dct_yg1dfhXP-106" value="CloudFront&amp;nbsp;" style="outlineConnect=0;dashed=0;verticalLabelPosition=bottom;verticalAlign=top;align=center;html=1;shape=mxgraph.aws3.cloudfront;fillColor=#F58536;gradientColor=none;" vertex="1" parent="2">
          <mxGeometry x="121.75" y="252" width="76.5" height="93" as="geometry" />
        </mxCell>
        <mxCell id="CSuMtrH3Dct_yg1dfhXP-117" style="edgeStyle=none;rounded=0;orthogonalLoop=1;jettySize=auto;html=1;fontSize=20;fontColor=#000000;startArrow=none;startFill=0;strokeColor=#4277BB;strokeWidth=2;" edge="1" parent="2" source="CSuMtrH3Dct_yg1dfhXP-110">
          <mxGeometry relative="1" as="geometry">
            <mxPoint x="532" y="298" as="targetPoint" />
          </mxGeometry>
        </mxCell>
        <mxCell id="CSuMtrH3Dct_yg1dfhXP-110" value="Application Load Balancer&lt;br&gt;Distribute network traffic" style="sketch=0;points=[[0,0,0],[0.25,0,0],[0.5,0,0],[0.75,0,0],[1,0,0],[0,1,0],[0.25,1,0],[0.5,1,0],[0.75,1,0],[1,1,0],[0,0.25,0],[0,0.5,0],[0,0.75,0],[1,0.25,0],[1,0.5,0],[1,0.75,0]];outlineConnect=0;fontColor=#232F3E;gradientColor=#F78E04;gradientDirection=north;fillColor=#D05C17;strokeColor=#ffffff;dashed=0;verticalLabelPosition=bottom;verticalAlign=top;align=center;html=1;fontSize=12;fontStyle=0;aspect=fixed;shape=mxgraph.aws4.resourceIcon;resIcon=mxgraph.aws4.elastic_load_balancing;" vertex="1" parent="2">
          <mxGeometry x="335" y="258.5" width="78" height="78" as="geometry" />
        </mxCell>
        <mxCell id="CSuMtrH3Dct_yg1dfhXP-118" style="edgeStyle=none;rounded=0;orthogonalLoop=1;jettySize=auto;html=1;fontSize=20;fontColor=#000000;startArrow=none;startFill=0;strokeColor=#4277BB;strokeWidth=2;" edge="1" parent="2" source="79" target="CSuMtrH3Dct_yg1dfhXP-116">
          <mxGeometry relative="1" as="geometry" />
        </mxCell>
        <mxCell id="79" value="" style="swimlane;shadow=0;strokeColor=#4277BB;fillColor=#ffffff;fontColor=#4277BB;align=right;startSize=0;collapsible=0;strokeWidth=3;" parent="2" vertex="1">
          <mxGeometry x="542" y="56" width="137" height="473" as="geometry" />
        </mxCell>
        <mxCell id="CSuMtrH3Dct_yg1dfhXP-111" value="EC2" style="outlineConnect=0;dashed=0;verticalLabelPosition=bottom;verticalAlign=top;align=center;html=1;shape=mxgraph.aws3.ec2;fillColor=#F58534;gradientColor=none;" vertex="1" parent="79">
          <mxGeometry x="30.25" y="114" width="76.5" height="93" as="geometry" />
        </mxCell>
        <mxCell id="CSuMtrH3Dct_yg1dfhXP-112" value="EC2" style="outlineConnect=0;dashed=0;verticalLabelPosition=bottom;verticalAlign=top;align=center;html=1;shape=mxgraph.aws3.ec2;fillColor=#F58534;gradientColor=none;" vertex="1" parent="79">
          <mxGeometry x="30.25" y="252" width="76.5" height="93" as="geometry" />
        </mxCell>
        <mxCell id="CSuMtrH3Dct_yg1dfhXP-113" value="&lt;span style=&quot;color: rgb(51 , 51 , 51) ; font-family: &amp;#34;helvetica&amp;#34; , &amp;#34;arial&amp;#34; , &amp;#34;microsoft yahei&amp;#34; , &amp;#34;simsun&amp;#34; , &amp;#34;stxihei&amp;#34; , sans-serif ; font-size: 14px ; font-style: normal ; font-weight: 400 ; letter-spacing: normal ; text-indent: 0px ; text-transform: none ; word-spacing: 0px ; background-color: rgb(241 , 244 , 246) ; display: inline ; float: none&quot;&gt;Auto Scaling&lt;/span&gt;&lt;br&gt;" style="outlineConnect=0;dashed=0;verticalLabelPosition=bottom;verticalAlign=top;align=center;html=1;shape=mxgraph.aws3.auto_scaling;fillColor=#F58534;gradientColor=none;" vertex="1" parent="79">
          <mxGeometry x="28.75" y="-34" width="79.5" height="76.5" as="geometry" />
        </mxCell>
        <mxCell id="CSuMtrH3Dct_yg1dfhXP-115" value="&lt;font color=&quot;#000000&quot;&gt;&lt;span style=&quot;font-size: 20px&quot;&gt;Scalable&lt;/span&gt;&lt;/font&gt;" style="text;html=1;strokeColor=none;fillColor=none;align=center;verticalAlign=middle;whiteSpace=wrap;rounded=0;fontColor=#FFB570;" vertex="1" parent="79">
          <mxGeometry x="38.5" y="406" width="60" height="30" as="geometry" />
        </mxCell>
        <mxCell id="CSuMtrH3Dct_yg1dfhXP-116" value="RDS&lt;br&gt;Data store" style="outlineConnect=0;dashed=0;verticalLabelPosition=bottom;verticalAlign=top;align=center;html=1;shape=mxgraph.aws3.rds;fillColor=#2E73B8;gradientColor=none;fontSize=20;fontColor=#000000;" vertex="1" parent="2">
          <mxGeometry x="772" y="223.5" width="119.11" height="134" as="geometry" />
        </mxCell>
        <mxCell id="CSuMtrH3Dct_yg1dfhXP-121" value="End User" style="sketch=0;outlineConnect=0;fontColor=#232F3E;gradientColor=none;strokeColor=#232F3E;fillColor=#ffffff;dashed=0;verticalLabelPosition=bottom;verticalAlign=top;align=center;html=1;fontSize=12;fontStyle=0;aspect=fixed;shape=mxgraph.aws4.resourceIcon;resIcon=mxgraph.aws4.user;" vertex="1" parent="2">
          <mxGeometry x="121.75" y="46" width="74" height="74" as="geometry" />
        </mxCell>
      </root>
    </mxGraphModel>
  </diagram>
</mxfile>
